<svg width="207" height="127" viewBox="0 0 207 127" fill="none" xmlns="http://www.w3.org/2000/svg" class="w-full h-full"><path d="M93.3675 43.8997L80.3915 46.7218C80.227 47.725 80.1178 48.7365 80.0645 49.7517V49.7838C80.0645 50.1104 80.0529 50.4374 80.0295 50.7647C79.8857 54.1791 78.4929 57.4218 76.1155 59.8767C71.2205 64.9217 63.3995 65.4517 57.4795 59.3467C51.7075 53.3947 52.2175 45.3327 57.1175 40.2837C60.7665 36.5137 65.4455 35.7607 69.7605 36.4437L72.6085 22.4987C62.5955 19.8627 53.6085 22.7987 46.8845 29.7317C36.7205 40.2097 33.4345 57.6147 46.2975 70.8787C59.3085 84.2927 76.1915 80.8977 86.3495 70.4247C86.6175 70.1507 86.8795 69.8707 87.1265 69.5827C93.2815 62.7447 95.6855 53.6707 93.3675 43.8997Z" fill="#F2C52A"></path><path d="M132.136 35.8986C129.204 30.7322 124.728 26.6137 119.336 24.1216C106.726 18.2046 90.3289 21.6476 82.7919 38.7256C81.6524 41.2784 80.8458 43.9671 80.3919 46.7256C80.2303 47.7293 80.1211 48.7406 80.0649 49.7556V49.7846C80.0439 50.1116 80.0359 50.4416 80.0299 50.7686C79.9099 57.7173 82.4498 64.4491 87.1299 69.5866C89.917 72.6764 93.2983 75.1724 97.0719 76.9256C106.013 81.1196 114.648 80.6006 121.012 77.2586L117.546 67.0856C113 68.1465 108.226 67.5666 104.067 65.4486C97.5669 62.4036 93.8669 57.3936 94.2899 51.0326L129.126 67.3646C130.251 65.5433 131.257 63.6506 132.136 61.6986C136.763 51.3466 135.814 42.5736 132.136 35.8986ZM121.074 50.5846L98.7629 40.1246C103.016 34.8586 109.063 34.5316 113.963 36.8246C118.863 39.1176 122.607 44.2726 121.075 50.5806" fill="#F2C52A"></path><path d="M164.403 21.3967C154.885 21.3967 149.303 26.7267 148.477 28.7507H148.167V2.20166H132.135V77.9017H148.167V71.6117H148.479C149.307 73.6377 154.887 78.9657 164.405 78.9657C176.605 78.9657 190.047 69.4797 190.047 50.1847C190.047 30.8897 176.601 21.3967 164.403 21.3967ZM161.09 64.2527C154.057 64.2527 147.752 59.2437 147.752 50.1847C147.752 41.1257 154.057 36.1097 161.09 36.1097C167.916 36.1097 174.228 41.2217 174.228 50.1837C174.228 59.1457 167.916 64.2527 161.09 64.2527Z" fill="#F2C52A"></path><path d="M206.258 23.5278H190.228V78.9668H206.258V23.5278Z" fill="#F2C52A"></path><path d="M206.437 9.05473C206.471 10.1526 206.285 11.2461 205.888 12.2705C205.492 13.2949 204.894 14.2291 204.129 15.0178C203.365 15.8066 202.45 16.4336 201.438 16.8619C200.427 17.2901 199.339 17.5108 198.241 17.5108C197.143 17.5108 196.055 17.2901 195.044 16.8619C194.032 16.4336 193.117 15.8066 192.353 15.0178C191.588 14.2291 190.99 13.2949 190.594 12.2705C190.197 11.2461 190.011 10.1526 190.045 9.05473C190.011 7.95687 190.197 6.86331 190.594 5.83895C190.99 4.8146 191.588 3.88034 192.353 3.09162C193.117 2.3029 194.032 1.67581 195.044 1.24756C196.055 0.819307 197.143 0.598633 198.241 0.598633C199.339 0.598633 200.427 0.819307 201.438 1.24756C202.45 1.67581 203.365 2.3029 204.129 3.09162C204.894 3.88034 205.492 4.8146 205.888 5.83895C206.285 6.86331 206.471 7.95687 206.437 9.05473Z" fill="#F2C52A"></path><path d="M42.5606 25.9529C42.5935 28.1607 41.748 30.2911 40.2103 31.8755C38.6725 33.46 36.5683 34.3687 34.3606 34.4019C32.1528 34.3687 30.0487 33.46 28.5109 31.8755C26.9731 30.2911 26.1277 28.1607 26.1606 25.9529C26.1277 23.7452 26.9731 21.6148 28.5109 20.0303C30.0487 18.4458 32.1528 17.5371 34.3606 17.5039C36.5683 17.5371 38.6725 18.4458 40.2103 20.0303C41.748 21.6148 42.5935 23.7452 42.5606 25.9529Z" fill="#F2C52A"></path><path d="M83.8788 116.541C83.7458 112.766 83.6728 106.834 83.6728 106.284C83.656 105.562 83.7881 104.845 84.0606 104.176C84.3332 103.508 84.7404 102.903 85.257 102.398C85.7737 101.894 86.3885 101.502 87.0634 101.245C87.7383 100.989 88.4587 100.875 89.1798 100.909C89.8948 100.883 90.6076 101.004 91.2741 101.265C91.9406 101.525 92.5467 101.919 93.055 102.423C93.5633 102.926 93.963 103.529 94.2296 104.193C94.4961 104.857 94.6238 105.569 94.6048 106.284C94.6048 106.835 94.5308 112.766 94.3958 116.541H100.396C100.455 112.741 100.484 106.79 100.484 106.284C100.484 100.259 96.5758 94.2769 89.1748 94.2769C81.6918 94.2769 77.7808 100.258 77.7808 106.284C77.7808 106.791 77.8128 112.745 77.8718 116.541H83.8788Z" fill="white"></path><path d="M100.441 116.541C100.308 112.766 100.235 106.834 100.235 106.284C100.218 105.562 100.35 104.845 100.623 104.176C100.896 103.508 101.303 102.903 101.819 102.399C102.336 101.895 102.951 101.502 103.626 101.246C104.3 100.989 105.021 100.875 105.742 100.909C106.457 100.883 107.17 101.004 107.836 101.265C108.503 101.525 109.109 101.919 109.617 102.423C110.125 102.926 110.525 103.529 110.792 104.193C111.058 104.857 111.186 105.569 111.167 106.284C111.167 106.835 111.093 112.766 110.958 116.541H116.958C117.017 112.741 117.046 106.79 117.046 106.284C117.046 100.259 113.138 94.2769 105.737 94.2769C98.2538 94.2769 94.3428 100.258 94.3428 106.284C94.3428 106.791 94.3748 112.745 94.4338 116.541H100.441Z" fill="white"></path><path d="M138.591 102.878C138.301 101.152 137.592 99.5244 136.526 98.137C135.46 96.7497 134.07 95.6452 132.477 94.9207C127.512 92.5557 121.033 93.8757 118.017 100.596C117.445 101.851 117.083 103.191 116.945 104.563C116.854 105.499 116.886 106.442 117.039 107.37C117.374 109.183 118.142 110.888 119.277 112.34C120.413 113.792 121.883 114.948 123.562 115.71C125.013 116.474 126.623 116.889 128.263 116.922C129.903 116.955 131.528 116.604 133.009 115.898L131.67 111.878C129.873 112.286 127.989 112.046 126.351 111.201C123.795 109.982 122.351 107.994 122.528 105.485L136.237 112.017C137.307 110.362 138.066 108.525 138.478 106.598V106.592C138.729 105.37 138.767 104.115 138.59 102.881M133.102 105.378L124.32 101.193C125.041 100.353 126.018 99.7744 127.101 99.5456C128.184 99.3169 129.312 99.4509 130.311 99.927C131.31 100.403 132.125 101.195 132.629 102.18C133.134 103.165 133.3 104.289 133.102 105.378Z" fill="white"></path><path d="M154.95 86.2427V96.7237H154.826C154.502 95.9237 152.293 93.8237 148.538 93.8237C144.238 93.8237 139.538 96.8097 138.593 102.883C138.472 103.643 138.413 104.412 138.416 105.183C138.416 105.669 138.437 106.14 138.481 106.594C139.091 113.258 144.032 116.542 148.538 116.542C152.293 116.542 154.502 114.442 154.826 113.642H154.95V116.125H161.279V86.2427H154.95ZM149.85 110.736C149.137 110.735 148.432 110.589 147.778 110.304C147.124 110.02 146.536 109.605 146.05 109.084C145.563 108.562 145.189 107.947 144.951 107.275C144.712 106.603 144.615 105.89 144.664 105.179C144.621 104.466 144.724 103.752 144.967 103.081C145.21 102.41 145.588 101.795 146.077 101.276C146.567 100.756 147.157 100.342 147.813 100.059C148.468 99.7755 149.174 99.6295 149.888 99.6295C150.602 99.6295 151.308 99.7755 151.964 100.059C152.619 100.342 153.21 100.756 153.699 101.276C154.188 101.795 154.566 102.41 154.809 103.081C155.052 103.752 155.156 104.466 155.113 105.179C155.163 105.897 155.064 106.617 154.822 107.295C154.579 107.973 154.198 108.592 153.704 109.115C153.209 109.637 152.61 110.051 151.947 110.33C151.284 110.609 150.569 110.747 149.85 110.736Z" fill="white"></path><path d="M178.497 94.2407L173.114 108.459L167.724 94.2407H161.278L170.089 115.866L166.579 124.115H172.787L176.053 116.122L181.566 102.552L183.398 98.0607L184.95 94.2407H178.497Z" fill="white"></path><path d="M197.87 94.2417V96.7247H197.749C197.422 95.9247 195.219 93.8247 191.464 93.8247C189.878 93.8326 188.317 94.222 186.913 94.9601C185.509 95.6983 184.303 96.7635 183.398 98.0657C182.468 99.4093 181.842 100.939 181.564 102.55C181.412 103.418 181.336 104.298 181.337 105.18C181.337 112.796 186.647 116.542 191.462 116.542C195.217 116.542 197.42 114.442 197.747 113.642H197.868V116.125H204.197V94.2417H197.87ZM192.77 110.737C192.057 110.736 191.353 110.589 190.699 110.305C190.046 110.02 189.458 109.605 188.972 109.083C188.486 108.562 188.112 107.947 187.874 107.275C187.636 106.604 187.538 105.891 187.587 105.18C187.543 104.466 187.645 103.751 187.888 103.079C188.13 102.406 188.508 101.791 188.998 101.27C189.487 100.749 190.079 100.334 190.735 100.05C191.391 99.7666 192.098 99.6203 192.813 99.6203C193.528 99.6203 194.235 99.7666 194.891 100.05C195.547 100.334 196.138 100.749 196.628 101.27C197.118 101.791 197.495 102.406 197.738 103.079C197.981 103.751 198.083 104.466 198.039 105.18C198.09 105.898 197.99 106.619 197.747 107.297C197.504 107.975 197.123 108.595 196.627 109.118C196.132 109.64 195.533 110.054 194.869 110.333C194.205 110.612 193.49 110.749 192.77 110.737Z" fill="white"></path><path d="M47.9378 73.0426C34.9268 59.6286 18.0438 63.0176 7.88578 73.4966C1.16278 80.4266 -1.54622 89.8426 0.868776 100.02L14.3888 97.0836C13.7288 92.6336 14.4598 87.8126 18.1138 84.0436C23.0138 78.9986 30.8328 78.4686 36.7558 84.5736C42.5278 90.5256 42.0188 98.5916 37.1208 103.637C33.4658 107.407 28.7868 108.16 24.4748 107.483L21.6248 121.421C31.6408 124.057 40.6248 121.121 47.3518 114.188C57.5118 103.716 60.8018 86.3046 47.9378 73.0466" fill="white"></path><path d="M52.3408 118.066C52.3897 116.455 52.9119 114.895 53.8421 113.58C54.7724 112.265 56.0695 111.252 57.5715 110.67C59.0735 110.087 60.7138 109.96 62.2877 110.304C63.8616 110.648 65.2993 111.448 66.4213 112.604C67.5433 113.76 68.2999 115.221 68.5967 116.804C68.8934 118.388 68.7171 120.024 68.0899 121.508C67.4626 122.991 66.4121 124.258 65.0695 125.148C63.7269 126.039 62.1518 126.514 60.5408 126.515C58.333 126.482 56.2289 125.573 54.6911 123.988C53.1533 122.404 52.3079 120.273 52.3408 118.066Z" fill="white"></path></svg>